 <svg  version="1.0" xmlns="http://www.w3.org/2000/svg"  width="300.000000pt" height="225.000000pt" viewBox="0 0 300.000000 225.000000"  preserveAspectRatio="xMidYMid meet">  <g transform="translate(0.000000,225.000000) scale(0.100000,-0.100000)" fill="#d5d5d5" stroke="none"> <path d="M1555 2208 c3 -23 13 -48 22 -55 8 -6 12 -17 8 -24 -10 -16 -14 -79 -4 -74 13 9 15 90 2 115 -7 14 -13 35 -13 47 0 12 -5 25 -11 28 -7 5 -8 -7 -4 -37z"/> <path d="M1904 2200 c5 -27 12 -48 14 -46 6 7 -10 96 -17 96 -4 0 -3 -22 3 -50z"/> <path d="M1755 2220 c5 -15 2 -26 -6 -32 -11 -7 -9 -8 5 -4 14 5 17 2 12 -11 -4 -9 -1 -20 6 -25 10 -6 10 -8 1 -8 -7 0 -13 -9 -13 -21 0 -11 -5 -29 -10 -40 -6 -11 -7 -19 -1 -19 5 0 12 11 15 24 3 14 13 32 22 40 14 15 14 19 0 48 -9 17 -16 37 -16 44 0 7 -5 16 -11 20 -8 4 -9 -1 -4 -16z"/> <path d="M883 2216 c3 -7 0 -19 -6 -25 -7 -7 0 -7 22 2 29 11 30 13 14 24 -22 17 -36 16 -30 -1z"/> <path d="M350 2217 c0 -2 14 -19 30 -37 20 -23 30 -28 30 -17 0 8 -13 25 -30 37 -16 12 -30 20 -30 17z"/> <path d="M1640 2205 c0 -7 8 -12 18 -11 9 0 16 -4 15 -11 -2 -7 4 -10 13 -6 15 5 15 7 0 15 -9 5 -14 13 -12 17 3 4 -4 8 -15 8 -10 1 -19 -4 -19 -12z"/> <path d="M1350 2193 c0 -7 6 -10 14 -7 8 3 17 0 22 -7 4 -7 3 -10 -3 -6 -7 4 -10 -3 -9 -17 0 -13 3 -22 5 -20 3 2 13 -8 24 -23 11 -16 16 -20 13 -9 -4 13 -2 17 8 13 18 -7 10 27 -10 44 -8 6 -14 19 -14 29 0 13 -7 17 -25 16 -14 0 -25 -6 -25 -13z"/> <path d="M1956 2185 c-4 -14 -2 -33 4 -43 8 -12 10 -12 7 -2 -2 8 0 27 4 43 4 15 4 27 -1 27 -4 0 -11 -11 -14 -25z"/> <path d="M1873 2147 c1 -30 5 -50 9 -43 6 8 8 7 8 -2 0 -7 4 -11 9 -7 9 5 -10 89 -23 102 -3 3 -4 -20 -3 -50z"/> <path d="M1241 2183 c1 -4 0 -15 -4 -23 -3 -8 -7 -25 -10 -37 -4 -19 -2 -21 11 -14 10 4 24 11 32 15 8 3 5 4 -7 2 -24 -4 -32 9 -10 17 9 4 8 6 -2 6 -10 1 -11 4 -2 15 8 10 9 16 1 21 -6 4 -10 3 -9 -2z"/> <path d="M1140 2155 c-13 -14 -19 -25 -13 -25 6 0 16 6 23 14 6 8 18 12 27 9 10 -4 14 -2 11 7 -7 23 -23 21 -48 -5z"/> <path d="M143 2163 c10 -3 16 -10 14 -17 -3 -6 3 -12 13 -12 19 0 22 16 5 28 -5 4 -19 7 -30 7 -18 -1 -18 -2 -2 -6z"/> <path d="M2009 2155 c-1 -3 -2 -8 -3 -12 -1 -5 -4 -13 -8 -19 -4 -6 -3 -24 2 -40 l8 -29 1 31 c1 17 8 37 16 44 8 7 12 16 9 21 -6 10 -23 12 -25 4z"/> <path d="M363 2136 c0 -17 50 -41 69 -33 8 3 5 6 -6 6 -11 1 -29 10 -41 21 -17 16 -22 17 -22 6z"/> <path d="M757 2120 c-22 -26 -22 -36 4 -43 16 -4 18 -3 9 8 -14 17 -1 48 17 41 8 -3 11 -1 8 4 -9 15 -19 12 -38 -10z"/> <path d="M822 2128 c-17 -17 -15 -26 11 -39 18 -9 20 -9 10 2 -15 16 -17 33 -3 24 6 -3 10 1 10 9 0 19 -11 21 -28 4z"/> <path d="M1804 2124 c-13 -11 -15 -17 -6 -20 14 -7 16 -50 2 -59 -5 -3 -10 -1 -10 6 0 10 -3 10 -11 2 -9 -9 -8 -16 4 -27 21 -21 26 -20 37 9 9 24 40 36 40 16 0 -6 9 -8 21 -6 17 4 20 0 16 -17 -4 -14 -3 -18 5 -10 12 12 1 55 -13 47 -5 -4 -9 -1 -9 4 0 6 -8 11 -19 11 -16 0 -35 31 -32 53 1 10 -3 9 -25 -9z"/> <path d="M306 2103 c2 -43 3 -45 18 -31 10 10 11 19 3 35 -14 31 -23 29 -21 -4z"/> <path d="M1050 2090 c0 -15 39 -31 68 -28 24 3 22 5 -20 20 -27 9 -48 13 -48 8z"/> <path d="M1592 2053 c-7 -12 -12 -30 -11 -40 0 -14 2 -15 6 -3 3 8 15 23 27 33 11 10 16 16 9 13 -6 -3 -13 0 -15 6 -3 8 -9 5 -16 -9z"/> <path d="M2039 2033 c-2 -25 -2 -25 -6 -5 -4 19 -7 21 -19 11 -8 -6 -14 -19 -14 -28 0 -14 2 -14 10 -1 8 13 10 13 10 -2 0 -11 17 -25 44 -38 25 -11 48 -24 51 -30 11 -17 96 -63 103 -55 4 4 1 10 -5 12 -7 3 -13 18 -13 34 0 16 -5 29 -11 29 -6 0 -8 -8 -5 -18 5 -15 1 -18 -16 -17 -18 1 -22 7 -20 25 2 14 0 20 -7 16 -7 -4 -8 -1 -5 8 3 9 1 16 -5 16 -6 0 -11 -4 -11 -10 0 -5 -7 -10 -15 -10 -8 0 -15 7 -15 16 0 8 -4 13 -9 9 -6 -3 -13 10 -17 30 -7 42 -23 46 -25 8z"/> <path d="M1223 2043 c4 -6 1 -13 -5 -16 -19 -7 6 -30 34 -32 l21 -2 -22 18 c-12 10 -21 21 -21 24 1 4 -2 10 -6 13 -4 4 -4 2 -1 -5z"/> <path d="M300 2031 c0 -7 18 -31 39 -53 22 -21 40 -41 40 -44 1 -2 1 -9 1 -15 0 -6 7 -9 15 -5 9 3 15 0 15 -9 0 -8 5 -15 10 -15 20 0 9 20 -30 56 -28 26 -39 43 -34 56 4 13 0 18 -13 18 -11 0 -24 5 -31 12 -9 9 -12 9 -12 -1z"/> <path d="M780 2030 c-10 -7 -12 -12 -4 -17 6 -5 13 -18 17 -31 4 -17 1 -22 -11 -20 -11 2 -18 -5 -20 -19 -2 -16 2 -23 12 -23 9 0 16 7 16 16 0 9 5 12 12 8 7 -4 8 -3 4 4 -4 7 -2 12 5 12 7 0 9 3 6 7 -4 3 0 14 8 23 30 33 -6 65 -45 40z"/> <path d="M667 2014 c3 -9 0 -20 -8 -24 -7 -5 -10 -12 -7 -16 11 -10 41 25 34 41 -3 8 -10 15 -15 15 -6 0 -8 -7 -4 -16z"/> <path d="M1462 2005 c-1 -17 2 -23 12 -19 8 3 17 12 20 20 3 9 1 12 -4 9 -6 -3 -10 -1 -10 4 0 22 -16 10 -18 -14z"/> <path d="M983 1988 c-1 -10 2 -16 6 -14 4 3 18 -4 30 -16 15 -13 26 -17 33 -10 6 6 -2 13 -24 21 -24 8 -29 14 -20 20 11 6 9 9 -5 13 -13 4 -19 -1 -20 -14z"/> <path d="M1835 2000 c3 -5 13 -10 21 -10 8 0 17 -7 20 -15 5 -12 9 -13 21 -4 11 10 7 15 -24 25 -46 16 -46 16 -38 4z"/> <path d="M856 1984 c-8 -21 18 -52 48 -56 11 -2 20 -9 19 -15 -2 -8 4 -10 14 -6 11 4 14 3 9 -5 -4 -7 -1 -12 10 -12 14 0 15 2 3 18 -15 18 -56 59 -81 80 -13 10 -17 10 -22 -4z"/> <path d="M1406 1955 c3 -51 2 -49 19 -35 8 7 15 20 14 29 0 12 -2 13 -6 2 -4 -10 -10 -5 -18 15 l-12 29 3 -40z"/> <path d="M40 1963 c0 -6 5 -15 12 -19 7 -4 8 -3 4 4 -5 8 0 12 13 12 12 0 21 4 21 10 0 5 -11 9 -25 8 -14 -1 -25 -8 -25 -15z"/> <path d="M1149 1957 c7 -10 18 -17 23 -17 6 0 26 -7 45 -16 28 -14 36 -14 46 -4 10 10 8 12 -5 7 -12 -4 -18 -1 -18 8 0 9 -6 12 -16 8 -9 -3 -19 -1 -23 5 -3 6 -20 14 -36 18 -27 7 -29 6 -16 -9z"/> <path d="M1363 1942 c-6 -11 -8 -24 -3 -33 12 -19 22 -6 18 25 -3 25 -4 25 -15 8z"/> <path d="M1920 1951 c0 -6 7 -11 15 -11 8 0 15 -5 15 -11 0 -5 -6 -7 -12 -4 -7 4 -4 -1 6 -9 11 -9 40 -23 65 -33 53 -19 71 -31 71 -47 0 -6 -7 -3 -14 7 -23 30 -28 19 -6 -13 12 -16 24 -29 28 -29 21 3 24 -3 6 -16 -15 -11 -16 -14 -3 -15 8 0 20 5 25 10 7 7 19 6 37 -3 15 -8 25 -16 23 -18 -2 -2 11 -11 29 -20 31 -15 33 -15 30 2 -5 24 7 30 23 13 7 -8 10 -14 6 -14 -13 0 20 -32 49 -46 46 -24 45 -7 -3 41 -45 44 -75 56 -83 33 -6 -20 -57 11 -58 36 -1 17 -2 18 -6 4 -6 -22 -12 -22 -39 0 -35 29 -66 80 -52 85 7 2 -6 3 -29 2 -29 -1 -43 2 -43 10 0 7 -8 15 -17 18 -10 4 -28 14 -40 23 -14 10 -23 12 -23 5z"/> <path d="M1288 1940 c14 -17 16 -44 2 -35 -5 3 -10 2 -10 -4 0 -20 22 -22 27 -2 3 12 9 21 14 21 5 0 9 5 9 11 0 5 -5 7 -10 4 -6 -4 -19 -1 -28 6 -14 11 -15 11 -4 -1z"/> <path d="M149 1915 c-1 -5 -1 -13 0 -17 2 -12 -14 -9 -27 4 -7 7 -12 8 -12 2 0 -21 23 -34 38 -22 11 10 17 8 29 -7 11 -14 17 -16 20 -7 3 6 11 12 20 12 20 0 11 24 -12 28 -10 3 -15 0 -11 -7 12 -18 -16 -12 -30 7 -7 9 -14 13 -15 7z"/> <path d="M336 1893 c7 -16 14 -35 14 -43 0 -9 6 -22 13 -29 10 -11 7 -12 -15 -7 -17 4 -28 2 -28 -4 0 -5 3 -9 8 -9 4 1 18 1 30 0 21 -1 24 -5 22 -43 -4 -63 -2 -68 21 -68 13 0 18 4 13 11 -4 7 -8 26 -10 43 -5 43 -8 59 -17 73 -4 6 -1 14 5 16 8 3 6 6 -4 6 -10 1 -18 8 -18 16 0 8 -4 15 -9 15 -5 0 -12 11 -15 25 -4 14 -11 25 -16 25 -5 0 -2 -12 6 -27z"/> <path d="M724 1905 c3 -8 0 -15 -6 -15 -6 0 -8 -3 -5 -6 4 -4 13 -2 20 5 11 9 17 8 26 -2 6 -8 7 -17 3 -21 -4 -4 -2 -6 3 -4 11 3 56 -38 53 -49 -3 -11 33 -63 43 -63 14 0 10 26 -5 39 -8 7 -18 26 -21 42 -4 16 -13 29 -20 29 -7 0 -15 6 -18 14 -5 12 -60 46 -75 46 -2 0 -2 -7 2 -15z"/> <path d="M60 1890 c9 -16 9 -29 2 -45 -9 -18 -8 -25 4 -29 8 -3 13 -2 9 3 -3 5 -1 11 4 13 14 4 -2 71 -18 76 -10 3 -11 0 -1 -18z"/> <path d="M1130 1895 c7 -8 18 -15 25 -15 7 0 15 -7 19 -15 3 -10 18 -15 43 -14 29 2 32 3 11 6 -14 2 -32 11 -38 19 -7 8 -19 14 -27 14 -8 0 -11 5 -8 10 3 6 -4 10 -16 10 -18 0 -19 -2 -9 -15z"/> <path d="M1362 1875 c3 -11 -1 -32 -8 -46 -7 -14 -13 -44 -12 -66 0 -22 -3 -50 -7 -63 -4 -14 -3 -20 3 -16 5 3 12 -1 16 -9 3 -8 -3 -19 -12 -24 -16 -10 -16 -10 1 -11 11 0 17 -8 17 -22 0 -14 3 -19 10 -12 5 5 6 24 0 49 -6 27 -5 44 2 53 9 10 7 21 -6 43 -15 26 -16 29 -1 29 13 0 15 9 11 51 -2 27 -7 53 -11 57 -4 4 -5 -2 -3 -13z"/> <path d="M1103 1867 c5 -14 3 -16 -11 -8 -15 8 -17 3 -18 -35 -2 -46 11 -50 26 -8 6 15 15 22 25 18 8 -3 12 -11 8 -18 -3 -6 0 -6 8 2 11 10 9 17 -15 40 -20 19 -27 22 -23 9z"/> <path d="M207 1830 c-16 -16 -36 -30 -45 -30 -15 -1 -15 -2 1 -11 21 -12 51 -4 42 11 -3 5 8 16 25 25 17 9 28 20 25 25 -10 16 -18 12 -48 -20z"/> <path d="M299 1850 c-1 -8 -1 -20 0 -27 1 -7 -7 -10 -19 -8 -11 2 -18 0 -15 -6 4 -5 11 -6 17 -3 7 5 8 2 4 -5 -5 -7 -14 -10 -21 -7 -7 2 -27 -11 -44 -30 -17 -19 -27 -34 -22 -34 5 0 19 14 31 31 26 36 39 32 15 -5 -16 -24 -16 -26 -1 -26 10 0 15 4 12 9 -4 5 3 7 15 4 16 -5 20 -2 18 13 -2 10 5 31 15 46 13 20 15 31 7 45 -8 14 -11 15 -12 3z"/> <path d="M441 1834 c0 -11 8 -38 18 -60 11 -21 17 -42 14 -46 -2 -5 0 -8 5 -8 21 0 19 29 -3 62 -12 18 -25 42 -28 53 -4 19 -5 19 -6 -1z"/> <path d="M970 1820 c44 -29 77 -40 66 -21 -4 5 0 12 6 15 7 3 3 3 -10 0 -13 -3 -35 3 -56 15 -52 32 -57 25 -6 -9z"/> <path d="M1907 1843 c-12 -11 -7 -23 7 -17 18 7 32 -14 18 -28 -13 -13 -3 -48 14 -48 8 0 14 6 14 13 0 6 3 23 7 36 4 17 3 22 -5 17 -7 -4 -12 -1 -12 7 0 8 -7 18 -16 21 -19 7 -19 7 -27 -1z"/> <path d="M2232 1825 c-12 -15 -22 -32 -22 -38 0 -6 6 -3 14 8 9 12 20 16 35 12 16 -4 20 -2 13 6 -5 7 -11 18 -14 26 -3 10 -10 6 -26 -14z"/> <path d="M865 1820 c-3 -5 13 -14 35 -21 22 -7 40 -17 40 -24 0 -6 6 -12 13 -12 6 0 20 -4 30 -8 11 -5 17 -3 16 6 0 8 -26 26 -58 42 -65 30 -67 31 -76 17z"/> <path d="M1263 1818 c-19 -25 -22 -60 -7 -76 9 -8 14 -22 11 -31 -3 -11 2 -17 14 -18 16 -2 17 2 9 18 -8 15 -7 21 4 25 10 4 15 16 12 35 -3 33 -15 51 -17 26 -1 -9 -3 -21 -4 -27 -1 -5 -3 -13 -4 -17 0 -4 -6 -2 -11 3 -8 8 -7 19 0 39 12 31 8 42 -7 23z"/> <path d="M130 1760 c-8 -16 -8 -20 4 -20 9 0 20 9 26 20 8 16 8 20 -4 20 -9 0 -20 -9 -26 -20z"/> <path d="M2026 1749 c-13 -21 -24 -29 -37 -26 -10 3 -20 0 -22 -6 -1 -5 -13 -12 -26 -14 -17 -2 -22 1 -17 12 3 9 0 15 -8 15 -8 0 -16 -6 -18 -12 -6 -16 19 -41 32 -33 5 3 20 0 32 -7 13 -7 26 -11 31 -10 4 1 7 -3 7 -9 0 -8 5 -7 15 1 15 13 13 24 -6 26 -5 1 -13 2 -19 3 -15 2 -12 21 3 21 18 0 60 46 55 60 -2 6 -12 -3 -22 -21z"/> <path d="M1840 1737 c0 -21 12 -28 27 -16 19 16 16 29 -7 29 -11 0 -20 -6 -20 -13z"/> <path d="M34 1715 c4 -14 2 -25 -3 -25 -6 0 -8 -7 -4 -16 5 -13 8 -14 20 -2 10 11 11 21 4 41 -13 34 -25 35 -17 2z"/> <path d="M860 1731 c13 -9 13 -11 -2 -11 -10 0 -18 -4 -18 -9 0 -6 12 -9 28 -8 34 3 36 31 2 35 -20 2 -22 1 -10 -7z"/> <path d="M2051 1728 c-30 -11 -26 -19 7 -14 15 2 42 5 60 5 17 1 32 4 32 9 0 9 -73 10 -99 0z"/> <path d="M1167 1713 c-4 -3 -7 -16 -7 -27 0 -17 -2 -18 -10 -6 -5 8 -12 11 -15 8 -4 -4 -18 -3 -31 2 -26 10 -57 3 -48 -11 3 -5 20 -9 39 -9 18 0 40 -7 48 -14 13 -13 17 -12 36 8 24 25 28 56 8 56 -8 0 -17 -3 -20 -7z"/> <path d="M1753 1713 c-43 -6 -117 -42 -86 -43 12 0 24 4 28 9 3 5 20 7 38 4 58 -9 82 -9 100 -1 13 7 19 4 25 -11 4 -11 10 -20 15 -20 4 -1 7 -4 6 -7 0 -3 9 -14 21 -24 l21 -18 -31 -11 c-18 -6 -28 -6 -25 -1 4 6 0 10 -8 10 -9 0 -14 -10 -13 -29 l1 -28 35 23 c19 13 41 24 50 24 8 0 33 12 55 25 l40 25 -33 6 c-18 4 -35 11 -38 15 -3 5 -24 9 -47 10 -29 0 -36 3 -23 8 15 6 11 10 -25 24 -25 9 -51 16 -59 15 -8 0 -29 -3 -47 -5z m200 -79 c4 -1 13 -2 20 -3 7 -1 4 -7 -7 -16 -25 -19 -36 -19 -36 0 0 9 -7 18 -15 21 -8 4 -15 10 -15 15 0 6 10 4 23 -3 12 -7 25 -13 30 -14z"/> <path d="M190 1700 c13 -9 7 -14 -12 -11 -5 0 -8 -8 -8 -19 0 -25 16 -26 30 -1 15 28 12 41 -7 41 -15 0 -16 -2 -3 -10z"/> <path d="M710 1684 c0 -8 -4 -13 -8 -10 -4 2 -8 -5 -7 -17 0 -12 -4 -23 -9 -24 -11 -2 -26 -24 -26 -38 0 -5 5 -3 10 5 8 12 10 10 10 -8 0 -15 -4 -21 -12 -16 -7 5 -9 0 -6 -14 4 -13 -1 -30 -13 -43 -26 -30 -24 -44 2 -18 11 11 21 29 22 40 1 10 5 19 9 19 4 0 13 19 19 43 7 23 19 47 27 54 8 7 12 19 9 28 -8 20 -27 20 -27 -1z"/> <path d="M890 1689 c0 -5 -6 -7 -12 -4 -7 4 -4 -2 8 -12 11 -10 24 -31 28 -47 6 -26 6 -27 -9 -12 -23 22 -26 20 -13 -9 6 -13 15 -22 19 -19 5 3 9 -3 9 -14 0 -27 8 -31 41 -19 35 13 38 27 7 27 -19 0 -20 2 -8 10 10 6 11 10 3 10 -7 0 -13 7 -13 15 0 8 -5 15 -10 15 -6 0 -10 6 -9 13 3 26 -2 37 -17 37 -8 0 -12 5 -9 10 3 6 1 10 -4 10 -6 0 -11 -5 -11 -11z"/> <path d="M2055 1691 c-8 -14 20 -25 36 -15 8 5 9 3 4 -6 -5 -9 -3 -11 6 -6 8 3 22 9 32 12 23 8 22 20 -2 20 -11 0 -17 -5 -14 -10 4 -5 -1 -7 -10 -3 -10 4 -23 10 -31 13 -8 3 -17 1 -21 -5z"/> <path d="M1522 1668 c-21 -21 -13 -29 13 -12 13 8 30 12 36 8 8 -4 9 -3 5 4 -9 15 -39 15 -54 0z"/> <path d="M1310 1647 c0 -9 -4 -17 -8 -17 -5 0 -14 -18 -21 -40 -6 -21 -23 -52 -36 -68 -13 -16 -22 -32 -18 -35 3 -3 -1 -23 -9 -44 -10 -23 -12 -46 -7 -58 4 -11 8 -15 9 -10 1 6 3 25 6 43 5 41 30 88 62 116 23 22 35 54 33 95 -1 28 -11 43 -11 18z"/> <path d="M1757 1653 c-4 -3 -7 -14 -7 -24 0 -11 -6 -16 -18 -12 -10 2 -28 -5 -40 -15 -22 -19 -22 -20 -2 -25 12 -3 18 -1 14 5 -4 6 0 14 7 19 8 4 16 4 20 -2 9 -14 42 20 35 37 -3 7 0 15 7 18 7 3 8 5 1 5 -6 1 -14 -2 -17 -6z"/> <path d="M2030 1649 c0 -5 5 -7 10 -4 6 4 17 2 24 -5 8 -6 26 -8 40 -4 16 4 26 2 26 -5 0 -7 8 -8 26 -1 14 6 44 10 67 11 l42 1 -34 11 c-24 7 -41 7 -62 0 -19 -8 -29 -8 -29 -1 0 6 -7 7 -15 4 -8 -3 -22 -9 -32 -13 -11 -4 -14 -3 -9 5 5 8 -3 12 -23 12 -17 0 -31 -5 -31 -11z"/> <path d="M2333 1640 c-2 -24 3 -25 23 -6 19 19 18 26 -4 26 -11 0 -18 -8 -19 -20z"/> <path d="M843 1620 c3 -11 1 -18 -3 -15 -5 3 -12 0 -16 -6 -3 -6 0 -15 7 -20 11 -6 10 -9 -4 -15 -9 -3 -17 -14 -17 -23 0 -14 2 -14 11 -1 8 12 10 10 6 -10 -3 -14 -1 -34 3 -45 10 -24 11 -22 14 30 2 22 6 59 10 83 6 30 4 42 -4 42 -7 0 -10 -8 -7 -20z"/> <path d="M439 1603 c-5 -14 -12 -30 -15 -34 -14 -23 17 -5 35 20 18 25 19 30 6 35 -11 4 -19 -3 -26 -21z"/> <path d="M2245 1610 c-3 -6 -31 -8 -61 -6 -30 2 -57 0 -60 -5 -3 -5 -10 -6 -16 -3 -7 5 -8 2 -3 -6 6 -10 3 -12 -13 -8 -12 4 -22 2 -22 -4 0 -5 -8 -7 -17 -4 -10 3 -25 1 -33 -4 -12 -8 -10 -10 10 -10 20 0 22 -2 10 -10 -8 -5 -10 -10 -4 -10 6 0 17 6 23 14 6 7 26 16 44 19 17 3 40 8 49 12 13 5 15 2 11 -14 -4 -16 -1 -21 15 -21 12 0 24 5 27 10 8 12 55 13 55 1 0 -5 11 -8 25 -7 34 2 31 12 -6 20 -17 3 -28 10 -24 16 9 15 27 12 19 -2 -5 -10 -3 -10 7 0 12 11 12 14 -1 22 -19 12 -27 12 -35 0z"/> <path d="M185 1594 c-17 -7 -23 -13 -13 -14 9 0 18 -4 20 -9 2 -5 11 -4 20 3 27 20 7 35 -27 20z"/> <path d="M1438 1596 c-32 -11 -36 -22 -9 -22 11 0 17 4 14 9 -2 4 7 7 23 5 17 -2 29 2 32 12 4 13 3 13 -10 2 -9 -7 -18 -9 -20 -4 -1 4 -15 3 -30 -2z"/> <path d="M1766 1583 c-5 -12 2 -23 16 -23 5 0 7 4 4 8 -3 5 4 8 16 8 12 -1 23 4 24 9 5 14 -55 13 -60 -2z"/> <path d="M1990 1592 c0 -7 -7 -12 -16 -12 -10 0 -14 -6 -10 -15 3 -8 -2 -19 -12 -24 -9 -6 -12 -11 -6 -11 5 0 19 7 30 15 10 8 15 15 10 15 -5 0 -3 7 4 15 7 9 10 18 6 22 -3 3 -6 1 -6 -5z"/> <path d="M1003 1565 c-27 -19 -30 -24 -16 -29 11 -5 25 2 40 18 30 33 16 39 -24 11z"/> <path d="M1120 1582 c-8 -3 -20 -12 -27 -21 -10 -13 -12 -13 -13 -2 0 21 -11 7 -32 -41 l-18 -43 25 30 c14 17 25 26 25 20 0 -5 7 1 16 13 8 12 20 20 25 17 5 -4 12 1 15 10 8 19 4 24 -16 17z"/> <path d="M1540 1559 c-12 -22 -12 -23 3 -11 14 12 17 9 26 -20 5 -19 9 -25 10 -13 0 11 -6 31 -13 44 l-13 24 -13 -24z"/> <path d="M2473 1573 c-20 -8 -15 -23 7 -23 12 0 33 -8 48 -17 l27 -17 -29 32 c-31 33 -32 34 -53 25z"/> <path d="M457 1563 c-4 -3 -7 -15 -7 -25 0 -12 -4 -16 -12 -12 -8 5 -9 2 -5 -9 4 -11 -2 -24 -15 -37 -12 -11 -19 -22 -16 -25 6 -7 -18 -52 -69 -130 -17 -27 -29 -52 -26 -55 3 -3 7 0 9 5 10 26 45 75 54 75 12 0 5 -51 -8 -59 -5 -3 -14 -16 -21 -28 -10 -19 -9 -23 4 -23 8 0 15 -7 15 -15 0 -18 -16 -20 -24 -2 -3 6 -3 2 0 -10 3 -13 2 -23 -3 -23 -5 0 -9 -9 -9 -20 0 -11 4 -20 9 -20 5 0 7 -7 3 -15 -3 -8 0 -15 5 -15 6 0 9 9 6 20 -3 11 -1 20 4 20 4 0 6 7 3 15 -4 8 -2 21 4 28 5 6 13 33 16 59 4 26 11 50 15 52 4 3 6 24 5 48 -2 39 18 90 55 143 26 37 32 83 8 58z"/> <path d="M20 1536 c0 -29 39 -43 71 -25 12 6 34 8 50 5 15 -3 31 -1 34 3 3 5 15 7 27 3 14 -3 19 -2 14 6 -4 7 -13 12 -21 12 -7 0 -15 3 -18 8 -2 4 -2 2 -1 -5 4 -15 -16 -22 -41 -13 -11 4 -30 3 -43 -1 -42 -16 -65 -11 -59 11 3 11 1 20 -4 20 -5 0 -9 -11 -9 -24z"/> <path d="M2231 1536 c-8 -9 -3 -23 19 -53 16 -22 27 -43 23 -47 -3 -3 6 -6 21 -6 18 0 36 -11 57 -34 17 -19 31 -39 31 -43 0 -4 9 -14 19 -21 25 -17 24 -59 -1 -100 -19 -31 -46 -39 -61 -18 -4 4 -31 1 -62 -8 -70 -20 -74 -20 -82 4 -5 15 -12 19 -26 15 -11 -4 -19 -2 -19 5 0 6 -5 8 -11 4 -8 -4 -8 -9 0 -17 6 -6 11 -14 11 -17 0 -9 -131 -5 -152 5 -12 4 -18 3 -18 -5 0 -7 -8 -10 -20 -7 -11 3 -20 1 -20 -4 0 -10 -32 1 -41 14 -8 11 -149 -125 -149 -143 0 -7 -10 -27 -23 -44 -36 -47 -43 -61 -27 -51 8 5 4 -6 -9 -24 -13 -17 -21 -38 -18 -45 3 -8 0 -22 -8 -32 -11 -16 -10 -21 14 -41 35 -30 41 -29 43 10 2 44 4 59 10 77 22 62 27 95 15 103 -9 6 -8 7 3 6 27 -3 55 2 43 8 -7 2 -13 8 -13 12 0 12 72 86 100 103 28 18 87 22 96 7 4 -6 10 -7 17 0 7 5 30 11 52 13 40 3 40 3 45 -37 7 -52 4 -150 -5 -164 -11 -19 62 -12 98 9 25 15 35 28 35 46 0 14 8 43 18 65 15 33 21 39 38 34 12 -4 34 -8 50 -10 35 -4 49 -26 50 -76 2 -64 64 -101 81 -48 4 10 9 18 13 18 4 -1 14 -1 22 0 12 1 13 3 1 10 -8 5 -11 16 -6 30 8 27 23 27 35 -1 6 -17 9 -18 9 -6 1 9 -10 28 -24 42 -33 33 -32 53 5 61 17 4 35 15 40 25 9 17 7 19 -21 15 -17 -2 -41 1 -53 6 -18 9 -21 18 -20 57 3 61 1 56 22 80 9 11 25 30 34 41 27 32 52 28 45 -8 -4 -20 -2 -31 8 -35 7 -2 15 0 18 7 2 7 20 -2 46 -22 23 -18 44 -31 46 -29 3 2 -15 20 -40 38 -26 19 -50 48 -57 67 -7 18 -15 33 -19 33 -4 0 -5 18 -2 40 l6 40 -40 0 c-22 0 -58 6 -80 14 -25 9 -45 11 -54 5 -11 -7 -11 -9 4 -10 38 -3 77 -18 77 -30 0 -6 -6 -7 -12 -3 -10 6 -10 4 0 -7 9 -10 15 -10 24 -1 7 7 23 12 36 12 l24 0 -25 -34 c-15 -18 -23 -36 -20 -40 3 -3 -2 -8 -11 -12 -9 -3 -14 -10 -11 -14 3 -4 -4 -19 -15 -31 -11 -13 -19 -18 -20 -11 0 6 -7 12 -16 12 -8 0 -12 5 -9 10 4 6 15 8 26 5 16 -5 19 -1 19 29 0 35 -12 47 -25 26 -3 -5 -1 -10 4 -10 6 0 11 -5 11 -11 0 -6 -9 -8 -20 -4 -15 5 -20 2 -20 -11 0 -16 -1 -16 -15 2 -20 27 -19 30 16 45 l32 13 -34 29 c-20 19 -34 26 -37 18 -3 -9 -7 -9 -17 -1 -8 7 -26 13 -42 15 -15 1 -37 14 -49 28 -18 21 -25 23 -33 13z m159 -83 c0 -14 -37 -17 -64 -7 -30 11 -16 23 24 21 25 -1 40 -6 40 -14z m-54 -280 c-3 -8 -6 -19 -6 -24 0 -5 -9 -9 -20 -9 -22 0 -27 29 -9 47 15 15 42 4 35 -14z m-123 -6 c7 -19 -56 -197 -70 -197 -10 0 -13 27 -13 105 l0 105 39 0 c22 0 41 -5 44 -13z m220 0 c28 -2 31 -5 21 -31 -4 -11 -10 -13 -18 -8 -6 5 -27 9 -46 9 -29 -1 -36 3 -38 22 -3 21 -1 23 25 17 15 -4 40 -8 56 -9z m22 -136 c-15 -45 -36 -68 -54 -57 -4 3 -4 27 -1 55 4 44 10 54 35 70 29 17 30 17 33 -1 2 -10 -4 -40 -13 -67z"/> <path d="M898 1534 c-10 -17 -19 -69 -10 -56 6 9 12 5 21 -14 11 -24 10 -26 -3 -14 -17 14 -21 3 -7 -19 5 -7 14 -10 20 -7 7 5 11 -10 12 -46 1 -29 1 -56 0 -60 0 -5 4 -8 10 -8 8 0 9 20 4 65 -7 68 -39 174 -47 159z"/> <path d="M730 1525 c-1 -5 -2 -19 -1 -31 1 -11 -3 -32 -8 -47 -11 -28 -5 -61 9 -52 5 3 9 18 9 33 0 15 2 36 4 47 2 11 1 29 -4 40 -4 11 -8 16 -9 10z"/> <path d="M937 1523 c-11 -11 -8 -23 6 -20 7 1 13 -10 14 -28 5 -58 6 -65 16 -65 5 0 7 21 4 49 -4 40 -3 49 9 44 8 -3 14 -1 14 5 0 5 -10 12 -22 16 -29 7 -33 7 -41 -1z"/> <path d="M1192 1514 c-13 -9 -21 -22 -18 -30 3 -8 1 -25 -4 -39 -7 -19 -6 -25 4 -25 9 0 17 16 21 42 4 24 15 48 24 55 24 18 -1 16 -27 -3z"/> <path d="M2060 1521 c0 -9 -11 -12 -34 -9 -21 2 -32 0 -30 -7 3 -5 25 -11 49 -11 40 -1 44 0 33 15 -7 9 -14 18 -15 20 -2 2 -3 -1 -3 -8z"/> <path d="M311 1507 c-1 -10 -5 -15 -11 -12 -5 3 -10 -1 -10 -10 0 -12 4 -14 19 -6 16 9 18 6 17 -20 -1 -16 -7 -33 -14 -38 -14 -9 -18 -47 -8 -78 6 -17 3 -23 -8 -23 -9 0 -16 -5 -16 -10 0 -7 7 -7 21 0 11 7 18 18 15 26 -8 20 26 105 40 100 22 -8 24 24 4 44 -11 11 -24 20 -29 20 -5 0 -12 6 -14 13 -3 7 -6 4 -6 -6z"/> <path d="M785 1508 c-14 -42 -26 -101 -21 -106 3 -3 2 -10 -3 -16 -10 -12 -15 -55 -12 -96 1 -22 3 -23 12 -7 5 9 7 23 2 30 -9 15 -4 50 8 58 5 3 11 23 13 45 3 21 9 51 15 66 6 18 7 29 1 33 -6 4 -12 0 -15 -7z"/> <path d="M484 1495 c3 -8 1 -15 -4 -15 -6 0 -10 -7 -10 -16 0 -14 3 -14 15 -4 13 10 15 9 15 -11 0 -18 3 -20 12 -11 9 9 9 15 0 24 -7 7 -12 20 -12 30 0 10 -5 18 -11 18 -6 0 -9 -7 -5 -15z"/> <path d="M561 1505 c-2 -5 -4 -21 -5 -35 0 -14 -5 -28 -11 -32 -6 -5 -6 -8 1 -8 6 0 10 -12 7 -27 l-3 -28 10 25 c6 13 9 45 7 70 -2 25 -5 41 -6 35z"/> <path d="M1111 1493 c-12 -11 -23 -34 -26 -56 -2 -21 -7 -42 -10 -47 -3 -6 -4 -10 -1 -10 2 0 15 17 27 38 13 20 25 39 28 42 7 6 13 50 7 50 -2 0 -13 -8 -25 -17z"/> <path d="M1862 1497 c-24 -32 -22 -36 11 -20 19 10 33 20 31 22 -10 10 -34 8 -42 -2z"/> <path d="M2124 1498 c-3 -5 -10 -5 -16 -2 -6 4 -8 -1 -6 -11 4 -23 28 -32 28 -11 0 9 7 16 15 16 8 0 15 4 15 8 0 11 -29 11 -36 0z"/> <path d="M141 1477 c-8 -15 -9 -31 -3 -47 7 -18 5 -32 -7 -49 -15 -23 -15 -25 2 -18 12 4 17 1 17 -10 0 -9 3 -14 6 -10 8 8 12 157 4 157 -4 0 -12 -10 -19 -23z"/> <path d="M1903 1463 c-15 -21 -35 -43 -43 -50 -9 -7 -10 -12 -4 -13 6 0 17 7 24 15 7 8 16 12 21 9 5 -3 7 1 4 8 -6 17 26 54 51 61 17 4 16 5 -3 6 -15 1 -31 -12 -50 -36z"/> <path d="M1756 1461 c-21 -17 -31 -30 -24 -33 7 -2 27 11 45 29 39 41 28 43 -21 4z"/> <path d="M0 1471 c0 -4 12 -13 27 -20 l27 -12 -30 -20 c-16 -10 -24 -19 -18 -19 5 0 15 5 22 12 9 9 12 9 12 -1 0 -7 5 -9 11 -5 6 3 9 17 6 30 -2 13 -1 24 3 24 10 0 24 -32 20 -45 -1 -5 -10 -36 -20 -67 -14 -45 -15 -55 -4 -51 8 3 14 16 14 30 0 13 4 21 10 18 6 -3 10 2 11 12 0 10 4 38 8 63 6 41 5 45 -13 45 -12 1 -36 4 -53 8 -18 3 -33 3 -33 -2z"/> <path d="M2150 1460 c0 -13 7 -20 18 -20 10 0 23 -5 30 -12 6 -6 15 -9 19 -5 6 7 -15 27 -49 48 -15 8 -18 6 -18 -11z"/> <path d="M1440 1460 c-18 -11 -23 -57 -9 -79 9 -14 10 -13 5 2 -8 25 4 73 14 57 5 -8 9 -5 13 9 6 23 0 26 -23 11z"/> <path d="M814 1393 c1 -45 6 -68 15 -71 10 -3 11 2 5 19 -4 13 -7 45 -6 72 1 26 -2 47 -7 47 -5 0 -8 -30 -7 -67z"/> <path d="M1300 1434 c0 -8 -4 -13 -9 -10 -8 5 -20 -24 -21 -46 0 -15 18 -8 24 10 3 9 10 27 16 40 6 14 6 22 0 22 -6 0 -10 -7 -10 -16z"/> <path d="M1795 1413 c-19 -20 -35 -42 -35 -49 0 -7 -17 -30 -37 -50 -28 -28 -31 -33 -11 -20 23 15 135 156 123 156 -2 0 -20 -16 -40 -37z"/> <path d="M1946 1440 c14 -14 122 -25 108 -11 -5 6 -34 13 -64 16 -33 3 -50 1 -44 -5z"/> <path d="M1121 1413 c-7 -15 -19 -66 -27 -113 -8 -47 -18 -86 -23 -88 -6 -2 -7 -12 -1 -28 5 -13 7 -37 4 -53 -4 -21 -2 -30 11 -35 16 -6 17 0 12 55 -3 34 -1 74 5 88 5 14 13 44 18 66 5 22 13 56 18 76 12 47 0 69 -17 32z"/> <path d="M1379 1414 c-5 -15 -7 -29 -5 -32 3 -2 -1 -21 -9 -41 -7 -20 -16 -49 -20 -66 -4 -16 -11 -32 -16 -36 -5 -3 -7 -14 -3 -23 6 -15 9 -13 20 14 8 18 14 43 14 56 0 12 5 26 10 29 6 3 10 16 10 29 0 12 3 26 8 30 6 7 11 66 4 66 -1 0 -7 -12 -13 -26z"/> <path d="M2072 1417 c-10 -12 -4 -14 33 -13 42 1 67 16 26 16 -11 0 -26 2 -34 5 -7 3 -19 0 -25 -8z"/> <path d="M1542 1400 c-12 -12 -22 -28 -21 -38 0 -13 2 -14 6 -2 4 8 16 22 27 31 12 10 18 20 15 23 -3 3 -15 -3 -27 -14z"/> <path d="M570 1374 c0 -24 -4 -33 -12 -28 -8 5 -9 2 -5 -10 4 -10 7 -25 7 -34 0 -10 3 -12 9 -6 12 13 22 114 11 114 -6 0 -10 -16 -10 -36z"/> <path d="M1031 1383 c-6 -16 -13 -39 -15 -53 -3 -14 -8 -36 -11 -50 -12 -47 14 5 34 69 19 61 13 86 -8 34z"/> <path d="M2175 1400 c4 -6 17 -10 30 -10 13 0 27 -4 30 -10 3 -5 18 -10 33 -9 26 1 26 1 -5 10 -18 5 -33 13 -33 17 0 4 -14 8 -30 9 -18 1 -28 -2 -25 -7z"/> <path d="M2626 1371 c22 -15 52 -43 67 -60 32 -39 36 -32 5 9 -20 27 -89 80 -104 80 -4 0 11 -13 32 -29z"/> <path d="M1177 1363 c-7 -16 -12 -36 -9 -47 2 -10 -1 -22 -7 -25 -6 -4 -15 -29 -20 -57 -5 -27 -13 -57 -16 -66 -5 -12 -2 -18 6 -18 7 0 10 3 6 6 -3 4 1 20 9 36 9 17 14 39 11 49 -3 10 3 29 14 43 10 13 16 33 14 46 -2 12 0 31 6 41 5 11 7 19 5 19 -3 0 -12 -12 -19 -27z"/> <path d="M1690 1373 c-17 -4 -46 -43 -32 -43 11 0 57 39 51 43 -2 2 -11 2 -19 0z"/> <path d="M1960 1368 c0 -5 7 -8 15 -8 9 0 29 -7 45 -15 24 -12 29 -13 34 0 3 8 -4 17 -17 21 -29 10 -77 11 -77 2z"/> <path d="M1416 1322 c9 -99 30 -106 31 -9 1 50 1 51 -6 12 l-7 -40 -12 45 -11 45 5 -53z"/> <path d="M1893 1343 c0 -15 2 -21 7 -14 5 10 10 9 21 -1 15 -15 33 -17 44 -6 4 4 -4 10 -18 13 -14 4 -28 13 -31 21 -9 23 -21 16 -23 -13z"/> <path d="M1250 1334 c-13 -32 -12 -37 0 -29 15 9 12 -21 -4 -34 -20 -17 -42 -166 -26 -176 6 -4 10 14 10 45 0 36 3 49 12 44 7 -4 8 -3 4 4 -4 6 0 28 9 48 20 50 27 86 13 78 -7 -5 -9 2 -4 20 8 33 -1 34 -14 0z"/> <path d="M1834 1323 c-4 -13 -10 -23 -14 -23 -4 0 -12 -11 -18 -25 -6 -14 -7 -25 -2 -25 5 0 12 9 15 20 3 11 10 20 15 20 5 0 7 -8 4 -17 -5 -15 -4 -15 4 -3 6 8 8 18 5 23 -3 5 -1 12 5 16 7 4 8 12 1 21 -7 12 -10 11 -15 -7z"/> <path d="M477 1324 c-3 -3 -3 -12 -1 -19 3 -7 1 -16 -5 -20 -7 -3 -11 2 -11 14 0 12 -7 21 -15 21 -11 0 -12 -6 -6 -22 11 -30 37 -34 51 -9 8 15 8 21 0 21 -6 0 -8 5 -5 10 7 11 2 14 -8 4z"/> <path d="M774 1317 c3 -10 6 -33 6 -50 0 -24 3 -28 10 -17 10 16 3 59 -13 75 -7 7 -8 4 -3 -8z"/> <path d="M680 1295 c6 -17 5 -35 -5 -59 -13 -30 -13 -36 1 -47 11 -9 14 -22 10 -43 -4 -22 -3 -27 4 -16 8 13 10 12 10 -2 0 -10 4 -18 10 -18 6 0 6 9 1 23 -16 41 -24 127 -12 127 6 0 11 -5 11 -12 0 -6 3 -9 6 -5 4 3 4 12 2 19 -3 7 -6 17 -6 21 -1 9 -28 37 -36 37 -3 0 -1 -11 4 -25z"/> <path d="M110 1295 c-7 -8 -16 -13 -20 -10 -16 10 -49 -41 -51 -80 -1 -22 -7 -48 -12 -59 -12 -25 6 -42 23 -21 7 8 8 15 3 15 -8 0 -9 19 -3 70 1 12 3 12 7 1 4 -9 11 -2 22 21 9 19 24 42 33 51 15 16 17 16 21 -1 4 -13 5 -11 6 6 1 25 -11 29 -29 7z"/> <path d="M606 1294 c-8 -21 -6 -74 3 -99 5 -13 8 4 9 48 1 68 -1 79 -12 51z"/> <path d="M1969 1308 c0 -2 -2 -13 -3 -26 -2 -16 1 -21 11 -17 8 3 20 5 26 5 7 0 6 4 -3 10 -13 9 -13 10 0 10 13 0 13 1 0 10 -14 9 -29 13 -31 8z"/> <path d="M2144 1302 c3 -5 -5 -17 -17 -27 -13 -11 -17 -20 -10 -22 13 -5 46 26 51 45 1 7 -5 12 -14 12 -8 0 -13 -4 -10 -8z"/> <path d="M2555 1287 c-11 -7 -21 -12 -23 -13 -1 -1 0 -9 4 -18 3 -9 11 -13 17 -9 5 3 7 1 4 -5 -4 -5 -3 -20 1 -33 8 -20 10 -18 15 18 4 23 10 48 13 57 7 19 -3 20 -31 3z"/> <path d="M831 1276 c-13 -16 -4 -69 10 -60 8 5 13 -25 13 -78 0 -9 3 -15 7 -12 5 3 11 -18 15 -45 4 -31 11 -48 17 -44 6 3 7 1 3 -5 -9 -14 14 -92 27 -92 5 0 6 8 2 18 -4 9 -9 35 -12 57 -5 37 -49 187 -62 210 -3 5 -4 22 -2 37 3 31 -1 34 -18 14z"/> <path d="M1170 1194 c-7 -47 -10 -87 -8 -90 5 -4 38 136 38 161 0 8 -4 15 -8 15 -5 0 -15 -38 -22 -86z"/> <path d="M940 1242 c5 -15 13 -43 18 -62 l10 -35 0 45 c1 50 -7 74 -25 77 -8 2 -8 -6 -3 -25z"/> <path d="M1375 1218 c-4 -18 -2 -44 3 -58 7 -20 9 -13 9 33 0 31 -1 57 -3 57 -2 0 -6 -15 -9 -32z"/> <path d="M1736 1235 c6 -16 -8 -30 -51 -54 -26 -14 -31 -20 -15 -16 68 17 86 30 81 59 -1 5 4 13 11 17 9 6 6 8 -9 7 -11 -1 -19 -7 -17 -13z"/> <path d="M1430 1198 c0 -18 4 -39 9 -47 6 -10 9 1 9 32 0 26 -4 47 -9 47 -5 0 -9 -15 -9 -32z"/> <path d="M417 1204 c4 -11 3 -15 -5 -10 -8 4 -10 -3 -7 -24 2 -16 0 -32 -5 -35 -5 -3 -5 -19 0 -35 5 -17 8 -31 8 -33 -1 -1 2 -12 6 -24 11 -35 22 -27 18 12 -2 19 -7 35 -11 35 -10 0 -10 32 -2 45 12 17 13 73 2 80 -7 4 -8 0 -4 -11z"/> <path d="M480 1213 c-6 -26 -5 -33 4 -32 5 0 13 -5 17 -13 7 -10 9 -9 9 5 0 9 -4 17 -9 17 -5 0 -12 8 -14 18 -3 9 -6 11 -7 5z"/> <path d="M531 1163 c4 -32 8 -66 8 -75 1 -10 9 -18 19 -18 11 0 13 3 6 8 -7 4 -15 37 -19 75 -4 37 -10 67 -14 67 -4 0 -4 -26 0 -57z"/> <path d="M210 1199 c0 -5 5 -7 10 -4 6 3 10 0 10 -9 0 -8 -3 -16 -7 -18 -5 -1 -26 -30 -48 -62 -31 -46 -40 -69 -40 -104 -1 -29 -6 -47 -15 -50 -7 -3 -10 0 -6 7 4 6 2 11 -3 11 -14 0 -14 -27 -1 -35 6 -4 8 -11 5 -16 -4 -5 -2 -9 4 -9 6 0 8 -8 4 -17 -5 -15 -3 -14 10 2 9 11 14 29 11 41 -3 12 1 28 11 38 9 9 12 16 6 16 -24 0 -1 94 26 104 11 5 13 2 8 -11 -18 -43 -17 -53 1 -53 16 0 17 2 4 11 -11 8 -12 12 -2 16 6 2 12 12 12 21 1 10 9 40 19 69 15 44 15 53 4 58 -20 7 -23 6 -23 -6z"/> <path d="M914 1175 c2 -22 7 -51 11 -65 3 -14 9 -38 11 -55 9 -59 10 -65 18 -72 10 -10 -1 114 -11 130 -5 7 -13 32 -20 57 l-12 45 3 -40z"/> <path d="M1548 1189 c-2 -13 -9 -23 -15 -22 -7 2 -10 -4 -7 -12 4 -10 0 -15 -11 -15 -11 0 -15 -5 -11 -15 3 -8 1 -15 -4 -15 -6 0 -10 -12 -10 -26 0 -14 -4 -23 -10 -19 -12 8 -13 -44 -1 -64 11 -17 17 -6 26 49 3 25 9 54 12 65 6 20 6 20 15 0 8 -18 8 -18 4 3 -2 13 1 22 9 22 15 0 25 43 14 61 -5 8 -8 4 -11 -12z"/> <path d="M645 1165 c9 -53 26 -70 20 -20 -3 22 -10 44 -16 50 -8 7 -9 -1 -4 -30z"/> <path d="M1296 1155 c7 -43 14 -59 14 -31 0 9 5 14 10 11 16 -10 11 8 -11 35 l-20 25 7 -40z"/> <path d="M1411 1159 c0 -13 -1 -52 -4 -86 -3 -53 -2 -60 9 -45 12 16 13 15 14 -5 0 -12 3 -29 7 -39 4 -12 3 -15 -5 -10 -8 5 -12 -5 -12 -33 0 -23 4 -41 10 -41 5 0 7 7 4 15 -5 11 -2 13 11 9 19 -8 19 9 -5 91 -6 22 -12 66 -14 98 -3 55 -17 97 -15 46z"/> <path d="M486 1120 c3 -25 7 -54 8 -64 0 -11 9 -20 18 -22 15 -2 16 1 6 19 -6 12 -17 42 -25 67 l-13 45 6 -45z"/> <path d="M766 1152 c-4 -7 -2 -28 3 -49 7 -26 7 -41 -1 -50 -6 -7 -6 -13 -1 -13 5 0 17 -16 26 -35 9 -19 22 -35 28 -35 6 0 9 -7 6 -15 -4 -8 -2 -17 3 -20 6 -4 9 8 8 28 -2 25 -7 33 -17 29 -9 -3 -12 -1 -8 5 4 6 1 13 -7 16 -8 3 -14 23 -14 55 -2 57 -15 101 -26 84z"/> <path d="M603 1104 c7 -23 13 -30 18 -22 4 7 2 19 -4 27 -9 12 -9 13 1 7 7 -4 12 -2 12 6 0 8 -8 14 -19 15 -17 1 -18 -2 -8 -33z"/> <path d="M50 1101 c-6 -12 -7 -21 -3 -21 4 0 -4 -11 -20 -24 -23 -20 -25 -25 -11 -30 22 -8 26 -8 19 4 -3 6 -2 10 4 10 11 0 36 68 28 77 -3 2 -10 -5 -17 -16z"/> <path d="M1261 1055 c0 -38 4 -79 9 -90 6 -14 9 4 9 55 0 41 -4 82 -9 90 -7 10 -10 -6 -9 -55z"/> <path d="M296 1089 c-14 -11 -39 -47 -55 -79 -16 -32 -41 -75 -55 -96 -14 -20 -23 -41 -19 -46 3 -5 17 8 31 29 14 21 28 40 31 43 8 7 29 51 36 78 4 12 11 22 16 22 5 0 9 5 9 12 0 6 10 22 22 35 27 29 19 30 -16 2z"/> <path d="M656 1088 c4 -6 7 -27 6 -47 -1 -27 1 -32 8 -19 11 19 2 78 -12 78 -5 0 -6 -5 -2 -12z"/> <path d="M1006 1059 c-8 -44 -6 -71 4 -34 4 17 11 38 15 48 4 9 3 17 -3 17 -5 0 -12 -14 -16 -31z"/> <path d="M1149 1063 c0 -16 -1 -43 -2 -61 -1 -17 1 -32 4 -32 10 0 19 40 19 83 0 42 -20 52 -21 10z"/> <path d="M620 1048 c-9 -21 -13 -46 -9 -68 l6 -35 2 40 c1 29 4 36 11 25 6 -10 9 -2 7 28 0 23 -2 42 -2 42 0 0 -7 -15 -15 -32z"/> <path d="M706 1055 c-3 -8 -1 -15 4 -15 6 0 10 -9 10 -19 0 -11 5 -23 12 -27 8 -5 9 2 5 26 -4 18 -7 36 -7 41 0 15 -17 10 -24 -6z"/> <path d="M1228 1053 c0 -10 -2 -23 -2 -30 -1 -6 -5 -15 -9 -19 -10 -10 -9 -52 2 -59 6 -3 10 3 10 12 1 10 3 39 6 66 2 26 2 47 0 47 -3 0 -6 -8 -7 -17z"/> <path d="M1530 1045 c-5 -14 -13 -37 -16 -50 -3 -14 -10 -25 -16 -25 -5 0 -6 -6 -1 -12 4 -7 7 -26 8 -42 0 -16 6 -31 12 -33 9 -3 11 4 7 27 -5 22 -3 30 6 28 7 -2 15 3 17 10 3 6 -2 12 -11 12 -21 0 -20 18 4 62 12 22 16 40 10 43 -6 3 -14 -6 -20 -20z"/> <path d="M56 1010 c-22 -22 -34 -40 -27 -40 6 0 14 7 17 15 4 8 11 15 16 15 9 0 48 38 48 47 0 11 -20 -2 -54 -37z"/> <path d="M1330 1035 c0 -8 -6 -15 -12 -15 -10 0 -9 -3 1 -9 8 -5 11 -16 6 -30 -3 -12 -11 -19 -16 -16 -5 4 -9 1 -9 -4 0 -6 4 -11 10 -11 5 0 2 -21 -6 -47 -9 -27 -17 -90 -19 -142 -2 -64 -8 -97 -17 -102 -10 -7 -9 -9 3 -9 9 0 22 6 28 14 16 19 31 148 19 163 -5 7 -7 17 -3 24 6 8 10 7 16 -2 6 -10 9 -10 9 -2 0 6 -4 14 -9 17 -9 6 -5 75 6 106 9 26 10 80 1 80 -4 0 -8 -7 -8 -15z"/> <path d="M1546 1008 c-18 -25 -20 -38 -8 -38 10 0 35 50 28 57 -2 2 -11 -6 -20 -19z"/> <path d="M693 949 c-7 -39 -9 -78 -6 -85 3 -8 0 -14 -6 -14 -15 0 -6 -128 14 -196 11 -38 20 -54 29 -51 12 5 17 -16 28 -130 2 -21 18 -3 18 20 0 21 -27 156 -38 187 -9 29 -25 232 -22 303 2 58 -5 44 -17 -34z"/> <path d="M520 966 c0 -36 -3 -44 -15 -40 -8 4 -15 14 -16 23 0 11 -2 12 -6 3 -3 -8 4 -22 16 -33 11 -10 18 -26 15 -34 -4 -8 -1 -15 6 -15 7 0 10 -7 6 -15 -3 -8 1 -33 9 -56 8 -22 14 -57 13 -77 -1 -53 12 -108 23 -91 4 8 6 23 3 34 -2 11 -7 45 -10 75 -3 30 -7 69 -9 87 -1 17 -7 37 -11 45 -4 7 -7 38 -6 70 1 31 -2 59 -8 63 -6 4 -10 -11 -10 -39z"/> <path d="M2346 980 c4 -19 13 -44 20 -55 8 -11 14 -31 14 -45 l0 -25 15 28 c13 25 12 30 -8 61 -50 76 -48 74 -41 36z"/> <path d="M1951 973 c-2 -50 -11 -63 -41 -63 -29 0 -90 -43 -90 -63 0 -6 -7 -31 -17 -55 -12 -31 -19 -40 -25 -30 -7 9 -8 6 -5 -11 3 -13 1 -35 -4 -48 -5 -14 -7 -34 -4 -44 8 -24 34 -13 28 11 -6 24 66 178 96 205 19 16 25 17 43 6 23 -15 30 -10 32 21 2 33 36 37 36 4 0 -14 -5 -28 -10 -31 -6 -4 -8 -10 -5 -15 3 -4 -2 -13 -10 -20 -18 -15 -20 -47 -3 -52 7 -3 8 -9 2 -19 -17 -27 -42 -113 -37 -124 4 -5 3 -7 -2 -3 -15 14 -34 -27 -35 -74 0 -36 4 -48 15 -48 8 0 15 -4 15 -10 0 -5 7 -10 16 -10 8 0 12 4 9 10 -3 6 -1 10 4 10 6 0 11 -5 11 -11 0 -12 48 -8 98 7 12 3 22 2 22 -3 0 -31 -120 -108 -128 -83 -3 7 -15 2 -30 -12 -18 -17 -24 -19 -19 -6 9 25 -45 35 -75 14 -28 -20 -58 -21 -58 -1 0 8 9 15 19 15 11 0 23 5 27 11 3 6 19 9 35 7 34 -5 38 6 9 24 -11 7 -20 19 -20 26 0 8 -14 -2 -32 -22 -17 -20 -36 -36 -41 -36 -5 0 -16 -8 -23 -17 -13 -17 -15 -17 -28 0 -13 16 -15 17 -23 3 -8 -14 -10 -14 -23 2 -22 25 -25 53 -5 46 8 -3 15 -10 15 -15 0 -5 5 -9 11 -9 5 0 8 4 4 9 -3 5 -1 12 5 16 5 3 10 1 10 -5 0 -6 5 -8 13 -4 9 6 9 5 0 -8 -7 -8 -10 -18 -6 -21 14 -15 23 -5 23 27 0 39 37 71 70 61 27 -9 25 1 -7 40 -60 71 -71 90 -77 127 -3 21 -11 38 -17 38 -5 0 -7 -5 -4 -11 10 -14 -3 -59 -16 -59 -8 0 -9 11 -5 32 5 24 4 30 -5 21 -6 -6 -11 -24 -11 -40 0 -26 -12 -42 -31 -43 -5 0 -5 9 -2 20 4 11 8 34 10 50 2 16 9 38 14 49 20 36 14 48 -20 43 -22 -3 -27 -7 -18 -13 11 -7 11 -11 2 -17 -8 -5 -9 -13 -3 -22 13 -20 13 -43 0 -35 -5 3 -10 1 -10 -5 0 -6 -4 -8 -10 -5 -5 3 -10 1 -10 -4 0 -6 4 -11 9 -11 11 0 20 -51 30 -170 8 -105 25 -147 74 -189 17 -14 33 -26 36 -26 17 0 71 -29 71 -37 0 -5 8 -7 18 -4 9 3 31 8 47 10 60 8 84 32 95 96 3 22 11 35 20 35 8 0 18 7 21 15 4 9 11 -9 18 -42 14 -66 32 -80 21 -16 -9 45 -5 62 11 53 5 -4 9 2 9 12 1 10 8 29 16 43 8 14 13 18 10 8 -8 -26 6 -30 19 -5 8 15 8 27 1 39 -7 11 -6 25 2 45 l12 28 -19 -22 c-11 -13 -22 -23 -25 -23 -10 0 -7 38 3 45 11 6 11 85 0 85 -4 0 -6 -11 -4 -25 1 -14 -1 -25 -6 -25 -5 0 -5 -7 -2 -17 4 -10 2 -14 -4 -10 -6 4 -8 -3 -6 -17 4 -21 2 -23 -22 -18 -19 3 -23 7 -13 13 10 7 10 9 -3 9 -9 0 -20 -10 -24 -22 -7 -21 -8 -20 -12 10 -2 17 -9 32 -15 32 -6 0 -8 9 -5 20 3 11 1 20 -4 20 -12 0 -11 -22 1 -54 11 -29 0 -41 -29 -31 -13 4 -17 12 -14 25 3 11 10 20 15 20 6 0 7 7 4 16 -4 10 3 25 19 40 27 25 25 50 -3 39 -13 -5 -12 -2 3 15 10 11 13 20 7 20 -6 0 -9 6 -6 14 3 8 12 12 20 9 10 -4 11 -10 4 -24 -8 -14 -6 -23 10 -39 19 -19 19 -47 0 -35 -5 3 -8 -3 -7 -13 2 -29 25 -22 31 10 4 22 11 28 32 28 19 0 25 4 20 15 -3 9 5 33 18 53 13 20 40 67 60 104 20 37 48 80 61 96 43 52 27 49 -21 -3 -25 -27 -63 -82 -85 -122 -22 -40 -45 -75 -50 -79 -6 -3 -15 -18 -20 -32 -8 -21 -12 -23 -19 -12 -6 9 -5 19 0 24 13 13 13 29 0 21 -5 -3 -10 -1 -10 4 0 6 9 11 20 11 12 0 20 7 20 18 0 13 -2 14 -9 3 -7 -10 -10 -10 -13 -1 -2 7 -16 13 -31 13 -32 0 -34 8 -8 31 17 16 19 16 25 -6 6 -22 7 -22 17 -4 8 14 8 20 -1 26 -6 4 -12 11 -12 16 0 5 -4 8 -9 7 -5 -2 -7 7 -5 20 2 12 9 21 16 19 6 -1 9 2 6 7 -3 5 1 11 9 15 8 3 15 11 15 17 0 8 -4 8 -13 1 -8 -7 -23 -7 -49 1 -28 9 -38 18 -41 37 -3 21 -4 20 -6 -7z m-218 -350 c4 -33 2 -43 -9 -43 -7 0 -13 -8 -12 -17 3 -39 -3 -61 -17 -67 -20 -7 -41 32 -26 47 8 8 11 3 11 -19 1 -25 2 -26 11 -11 6 9 8 30 6 47 -3 17 0 31 6 34 8 3 7 8 -3 16 -11 9 -12 13 -2 17 6 2 9 9 6 15 -4 6 0 14 7 19 17 10 15 12 22 -38z m29 -61 c3 -12 -2 -24 -14 -31 -25 -15 -35 -7 -18 14 10 12 10 15 -1 15 -11 0 -11 2 1 10 21 14 27 12 32 -8z m127 -156 c9 -11 9 -16 0 -21 -6 -4 -15 -1 -20 6 -7 12 -9 12 -9 0 0 -11 -3 -12 -11 -4 -13 13 -4 33 15 33 8 0 19 -6 25 -14z m-146 -12 c-3 -8 5 -16 21 -20 14 -3 23 -10 21 -15 -3 -4 -12 -6 -19 -3 -8 3 -17 1 -21 -5 -9 -16 -22 -13 -29 5 -3 8 -2 12 4 9 6 -3 10 -1 10 4 0 6 -4 11 -9 11 -5 0 -11 6 -14 14 -4 9 2 14 18 14 15 0 22 -5 18 -14z m67 -5 c0 -5 5 -7 10 -4 6 3 10 1 10 -4 0 -6 -4 -11 -9 -11 -5 0 -12 -8 -15 -17 -6 -14 -3 -14 15 3 23 21 55 20 80 -2 18 -16 30 -9 22 12 -3 8 2 17 11 20 22 9 34 -5 16 -17 -13 -8 -13 -10 -1 -18 11 -7 8 -11 -10 -17 -13 -4 -27 -7 -31 -6 -5 1 -8 -4 -8 -12 0 -22 -26 -26 -77 -11 -56 17 -80 31 -70 41 3 4 13 1 22 -6 12 -10 15 -9 16 6 1 11 1 27 0 37 -1 9 3 17 8 17 6 0 11 -5 11 -11z"/> <path d="M400 965 c-6 -34 -5 -67 2 -71 4 -3 8 -20 8 -39 0 -40 8 -65 22 -65 6 0 5 6 -2 15 -8 9 -10 31 -6 62 4 32 1 58 -8 78 -8 17 -15 26 -16 20z"/> <path d="M1236 929 c-10 -23 -20 -67 -22 -98 l-3 -56 15 34 c8 18 13 40 10 48 -3 8 -2 11 4 8 5 -3 9 3 8 12 0 10 2 35 5 56 4 20 5 37 3 37 -1 0 -10 -19 -20 -41z"/> <path d="M773 905 c1 -33 7 -66 14 -73 10 -11 12 -4 6 35 -11 84 -22 104 -20 38z"/> <path d="M1131 906 c-13 -59 -17 -153 -7 -164 3 -3 6 20 6 52 0 31 5 77 11 101 6 24 9 49 7 56 -2 7 -10 -14 -17 -45z"/> <path d="M73 930 c-7 -25 -23 -26 -24 -2 0 12 -2 13 -6 3 -3 -8 2 -20 12 -27 10 -7 15 -20 12 -29 -4 -8 -2 -25 3 -37 10 -26 12 -19 15 60 2 54 -3 67 -12 32z"/> <path d="M253 925 c-10 -30 -7 -92 6 -100 4 -2 5 9 3 25 -2 18 1 30 10 33 7 2 5 3 -4 2 -21 -4 -22 -1 -7 26 6 11 9 25 6 32 -2 6 -8 -2 -14 -18z"/> <path d="M564 915 c4 -22 8 -49 9 -61 1 -11 8 -21 15 -21 13 0 12 20 -5 64 -6 16 -5 17 13 3 18 -14 18 -14 4 5 -38 50 -43 51 -36 10z"/> <path d="M1051 918 c0 -18 4 -53 8 -78 7 -39 8 -34 7 32 -1 43 -4 78 -8 78 -5 0 -8 -15 -7 -32z"/> <path d="M628 934 c-2 -5 1 -27 8 -49 12 -37 12 -38 13 -10 0 35 -13 73 -21 59z"/> <path d="M860 908 c0 -20 5 -40 10 -43 13 -8 13 45 0 65 -7 11 -10 6 -10 -22z"/> <path d="M2240 931 c0 -5 -7 -17 -16 -26 -10 -9 -17 -30 -18 -46 -1 -21 -6 -29 -19 -29 -15 0 -17 -8 -13 -61 2 -33 7 -63 10 -66 3 -3 10 16 17 42 12 48 70 116 103 121 14 2 16 -3 11 -26 -4 -16 -2 -36 2 -45 6 -11 9 -3 10 26 0 23 6 45 13 49 7 4 11 13 8 20 -6 18 -38 22 -38 5 0 -7 -13 -18 -29 -23 -24 -9 -31 -8 -36 6 -3 9 -1 18 4 20 6 2 11 10 11 17 0 7 6 16 13 18 6 3 2 6 -10 6 -13 1 -23 -3 -23 -8z"/> <path d="M1008 904 c-1 -16 -3 -45 -4 -64 -3 -42 4 -72 15 -65 5 2 7 36 5 76 -3 73 -13 105 -16 53z"/> <path d="M1468 899 c-2 -13 -9 -23 -15 -22 -8 2 -10 -4 -6 -14 4 -11 8 -13 11 -5 2 7 10 12 18 12 7 0 11 -6 8 -14 -3 -8 0 -25 6 -38 11 -22 10 -22 -4 -4 -9 11 -19 17 -22 13 -4 -4 -1 -13 6 -22 10 -12 10 -15 -5 -15 -12 0 -15 -5 -11 -16 3 -9 6 -22 6 -30 0 -8 9 -14 20 -14 21 0 28 26 8 32 -6 2 -8 10 -4 17 6 9 11 8 21 -6 7 -10 11 -21 9 -25 -3 -5 -1 -8 5 -8 11 0 7 83 -6 102 -4 7 -8 18 -9 25 -1 6 -9 22 -17 33 l-15 22 -4 -23z"/> <path d="M447 866 c4 -17 13 -44 20 -61 l14 -30 -7 30 c-3 17 -7 44 -8 61 0 17 -6 31 -13 31 -8 0 -10 -11 -6 -31z"/> <path d="M905 878 c4 -13 7 -35 7 -50 -1 -15 3 -30 8 -33 11 -7 12 14 4 68 -4 20 -11 37 -16 37 -6 0 -7 -9 -3 -22z"/> <path d="M346 860 c-10 -11 -16 -26 -13 -34 3 -8 0 -20 -8 -26 -7 -6 -16 -38 -20 -70 -4 -33 -11 -60 -16 -60 -4 0 -6 -7 -3 -15 5 -12 8 -12 19 -1 12 12 21 50 28 122 1 11 7 27 13 35 10 13 28 70 22 68 -2 0 -11 -9 -22 -19z"/> <path d="M1402 848 c0 -40 8 -68 18 -68 14 0 12 27 -2 33 -10 4 -10 6 0 6 16 1 15 26 -2 41 -12 9 -15 7 -14 -12z"/> <path d="M160 840 c1 -8 2 -24 1 -34 -1 -16 -4 -17 -13 -8 -15 15 -28 16 -28 2 0 -5 6 -9 13 -7 6 1 11 -4 9 -11 -1 -9 5 -8 23 4 21 14 23 19 13 38 -15 29 -20 34 -18 16z"/> <path d="M860 796 c0 -30 5 -58 10 -61 6 -4 10 17 10 54 0 34 -4 61 -10 61 -5 0 -10 -24 -10 -54z"/> <path d="M586 793 c11 -44 18 -53 34 -43 12 8 12 10 -3 16 -9 3 -17 14 -17 24 0 11 -5 22 -10 25 -7 4 -8 -3 -4 -22z"/> <path d="M260 802 c-1 -4 -3 -23 -6 -43 -4 -25 -1 -39 10 -49 13 -10 16 -10 16 4 0 10 -4 14 -10 11 -15 -10 -12 23 5 49 14 21 14 24 0 29 -8 4 -15 3 -15 -1z"/> <path d="M791 782 c-1 -20 3 -31 9 -27 6 3 10 -3 10 -14 0 -11 5 -23 11 -27 12 -7 6 19 -16 71 l-13 30 -1 -33z"/> <path d="M1365 771 c-9 -40 4 -123 19 -118 6 2 13 12 14 22 2 10 0 15 -6 11 -7 -4 -8 4 -2 24 6 19 5 32 -2 36 -7 4 -8 2 -4 -4 4 -7 2 -12 -3 -12 -14 0 -14 33 0 47 7 7 7 13 1 17 -6 3 -13 -7 -17 -23z"/> <path d="M2227 763 c4 -23 2 -25 -7 -13 -9 12 -10 10 -4 -9 3 -14 7 -37 8 -52 1 -15 5 -31 10 -36 5 -4 6 10 2 34 -4 26 -2 43 5 45 6 2 8 14 4 31 -9 35 -24 35 -18 0z"/> <path d="M66 746 c-3 -14 -2 -35 4 -48 9 -22 10 -21 8 7 -1 17 1 35 5 42 4 6 3 14 -2 17 -5 3 -12 -5 -15 -18z"/> <path d="M1155 740 c-7 -21 3 -87 16 -110 5 -9 6 0 1 20 -4 19 -7 52 -7 73 1 42 -1 45 -10 17z"/> <path d="M2148 745 c-10 -35 -9 -83 2 -90 16 -10 21 16 12 65 -6 32 -10 39 -14 25z"/> <path d="M846 735 c4 -11 9 -53 11 -94 1 -44 7 -77 14 -82 8 -4 10 -22 6 -48 -3 -23 -1 -41 4 -41 5 0 9 23 9 50 0 28 -3 50 -7 50 -5 0 -9 31 -9 69 -1 49 -6 76 -19 92 -14 19 -16 20 -9 4z"/> <path d="M1009 723 c-6 -16 -12 -50 -14 -78 -4 -43 -3 -45 4 -15 5 19 9 28 10 20 1 -13 2 -13 11 0 6 9 6 18 0 24 -6 6 -10 15 -10 21 0 5 4 4 8 -2 5 -8 8 1 8 22 0 42 -3 44 -17 8z"/> <path d="M1097 735 c-4 -8 -2 -15 3 -15 5 0 9 -17 9 -37 0 -36 6 -122 10 -133 1 -3 5 1 10 9 6 9 11 10 15 2 4 -6 3 -11 -3 -11 -7 0 -8 -17 -4 -45 4 -36 2 -46 -11 -51 -9 -3 -14 -10 -11 -14 2 -4 7 -29 10 -56 10 -80 11 -83 19 -91 5 -5 6 5 3 21 -2 16 0 42 5 58 8 21 7 33 -1 41 -6 6 -11 16 -11 22 0 5 5 3 10 -5 6 -9 10 -10 10 -3 0 6 -5 15 -11 19 -8 5 -8 8 0 13 17 11 22 71 9 116 -6 22 -11 49 -11 60 1 11 -1 14 -4 8 -10 -27 -18 -11 -15 26 4 44 -20 96 -31 66z"/> <path d="M1241 750 c-1 -3 -4 -36 -6 -75 -3 -53 -1 -64 6 -45 8 20 8 136 0 120z"/> <path d="M2304 718 c5 -25 3 -38 -4 -38 -6 0 -8 -5 -5 -10 13 -21 37 11 30 39 -11 44 -28 51 -21 9z"/> <path d="M614 733 c-11 -4 -11 -7 30 -139 9 -29 16 -61 16 -72 0 -12 5 -24 10 -27 6 -3 10 -18 11 -33 0 -27 0 -27 10 -4 10 27 -4 105 -21 110 -5 2 -8 7 -6 11 4 6 -31 153 -37 157 -1 1 -7 -1 -13 -3z"/> <path d="M768 682 c5 -74 18 -88 16 -16 -1 30 -5 59 -10 64 -5 5 -8 -15 -6 -48z"/> <path d="M1418 715 c-7 -11 11 -110 18 -102 2 2 1 28 -4 58 -4 30 -10 49 -14 44z"/> <path d="M1454 698 c7 -38 17 -58 30 -58 7 0 6 -4 -2 -9 -11 -7 -10 -17 7 -54 12 -25 18 -52 15 -60 -7 -20 6 -26 31 -16 14 5 16 8 4 8 -9 1 -16 8 -16 16 0 8 7 15 16 15 14 1 14 2 -1 14 -14 10 -16 19 -8 44 5 20 5 32 -1 32 -5 0 -9 8 -9 18 0 11 -10 24 -22 31 -13 6 -15 9 -5 7 15 -5 16 -2 7 14 -15 29 -52 27 -46 -2z"/> <path d="M1338 685 c-3 -6 0 -37 7 -70 12 -54 13 -56 13 -20 0 52 -12 103 -20 90z"/> <path d="M497 663 c-5 -7 -3 -21 2 -31 6 -11 7 -22 4 -26 -3 -3 -1 -6 5 -6 13 0 14 12 3 50 -5 17 -9 21 -14 13z"/> <path d="M100 639 c0 -5 -4 -7 -10 -4 -5 3 -10 2 -10 -4 0 -5 6 -11 13 -14 10 -4 10 -7 0 -18 -15 -15 -17 -49 -4 -49 6 0 10 8 9 18 0 9 5 32 10 50 6 19 7 32 1 32 -5 0 -9 -5 -9 -11z"/> <path d="M197 588 c-9 -37 -17 -75 -16 -85 0 -10 9 15 20 56 11 40 18 78 16 84 -2 6 -11 -19 -20 -55z"/> <path d="M1293 643 c-7 -2 -9 -11 -6 -19 3 -8 1 -14 -5 -14 -18 0 -20 -49 -2 -65 9 -8 19 -12 22 -9 4 3 14 -11 23 -31 10 -19 20 -34 22 -31 3 3 1 11 -3 18 -5 7 -16 34 -25 60 -12 37 -13 45 -2 37 10 -9 13 -8 13 2 -1 23 -24 56 -37 52z"/> <path d="M313 603 c2 -21 7 -45 10 -53 4 -8 8 -35 11 -58 4 -43 11 -60 21 -51 2 3 0 21 -5 40 -6 20 -6 35 -1 37 5 2 3 15 -5 30 -8 15 -14 39 -14 54 0 15 -5 30 -11 33 -7 5 -9 -6 -6 -32z"/> <path d="M394 633 c4 -5 13 -8 19 -8 7 0 13 -8 15 -17 2 -10 -2 -18 -8 -18 -8 0 -8 -6 0 -20 15 -28 25 -25 27 8 1 30 -22 62 -45 62 -9 0 -12 -3 -8 -7z"/> <path d="M1401 623 c-1 -23 -21 -33 -21 -11 0 6 -3 8 -7 5 -3 -4 1 -15 9 -24 27 -33 49 -92 43 -120 -4 -22 -4 -24 4 -8 9 19 9 19 18 -3 5 -13 13 -23 18 -22 5 1 11 -4 13 -10 3 -9 -1 -9 -16 -1 -11 6 -23 11 -26 11 -11 0 -6 -58 9 -100 8 -23 15 -50 14 -59 -1 -9 -4 -5 -9 9 -5 17 -8 19 -9 8 -1 -10 -6 -18 -12 -18 -7 0 -9 -9 -5 -22 11 -42 -43 -173 -75 -183 -11 -4 -19 -16 -19 -28 0 -18 2 -19 10 -7 7 12 10 8 10 -15 1 -29 1 -29 16 -10 8 11 12 25 10 32 -3 7 0 12 6 10 7 -1 14 7 16 18 2 11 10 24 18 28 8 4 14 14 14 22 0 8 5 17 12 21 7 4 8 3 4 -4 -4 -7 -3 -12 2 -12 6 0 8 -8 5 -19 -3 -10 0 -22 6 -25 17 -11 14 47 -4 70 -18 24 -19 35 -2 33 6 -1 21 -1 31 0 20 1 20 1 1 15 -11 8 -23 12 -27 9 -13 -8 -21 28 -9 40 6 6 11 7 11 1 0 -6 32 -36 70 -68 45 -37 70 -52 70 -42 0 9 -3 15 -7 15 -21 -3 -22 3 -8 30 12 24 12 29 1 27 -8 -1 -21 -8 -30 -15 -14 -12 -16 -12 -10 3 5 12 2 15 -11 10 -13 -5 -16 -2 -13 12 2 10 10 19 19 18 8 -1 21 6 29 14 12 13 10 14 -16 8 -68 -18 -81 -16 -81 10 0 13 3 24 8 24 5 0 9 -7 9 -15 0 -8 5 -15 10 -15 16 0 51 40 45 50 -10 16 -35 12 -29 -4 3 -8 0 -17 -7 -21 -8 -6 -10 1 -7 24 5 36 -6 49 -28 30 -12 -10 -13 -9 -8 5 3 9 11 16 18 16 6 0 29 9 51 20 l40 20 -50 -5 c-35 -4 -46 -3 -35 4 13 9 13 13 1 33 -13 21 -13 22 1 10 10 -8 26 -10 43 -6 25 6 25 7 6 20 -11 8 -25 12 -33 9 -7 -3 -22 1 -33 9 -11 9 -15 16 -8 16 13 0 -16 60 -29 60 -4 0 -5 8 -1 18 5 14 3 14 -11 -3 -14 -15 -16 -16 -12 -3 2 9 1 29 -4 45 -7 24 -8 25 -9 6z"/> <path d="M575 610 c-3 -5 -1 -17 4 -27 5 -10 17 -39 27 -65 9 -27 20 -48 25 -48 4 0 1 12 -7 28 -7 15 -14 34 -14 42 0 8 -6 27 -14 42 -11 20 -11 28 -3 32 9 3 9 5 0 5 -6 1 -14 -3 -18 -9z"/> <path d="M126 558 c-9 -18 -28 -51 -41 -73 -14 -22 -24 -53 -24 -70 1 -28 2 -28 11 9 6 21 19 47 30 58 10 10 23 30 28 43 5 14 16 25 24 25 9 0 12 7 9 20 -7 28 -17 25 -37 -12z"/> <path d="M475 512 c3 -40 2 -59 -3 -48 -8 19 -9 19 -14 -2 -4 -12 -2 -22 2 -22 5 0 6 -16 3 -37 -4 -26 -3 -34 5 -29 7 4 12 22 12 39 0 24 3 28 10 17 6 -10 9 10 7 62 -1 53 -6 79 -14 83 -11 3 -12 -10 -8 -63z"/> <path d="M995 562 c-7 -23 20 -132 28 -111 3 7 6 -3 6 -23 1 -34 21 -67 21 -34 0 8 3 22 7 32 5 12 3 15 -6 9 -10 -6 -12 0 -6 24 7 31 -7 44 -19 19 -4 -7 -4 4 -2 24 5 36 -8 62 -17 36 -2 -7 -3 -1 -1 15 4 31 -2 36 -11 9z"/> <path d="M378 520 c2 -22 8 -43 14 -46 6 -4 7 9 2 33 -9 52 -20 62 -16 13z"/> <path d="M931 510 c1 -46 3 -50 9 -25 7 28 11 29 14 6 3 -21 16 -23 16 -2 0 12 -7 24 -15 27 -8 4 -13 9 -11 13 3 4 1 13 -5 21 -6 10 -8 -3 -8 -40z"/> <path d="M1250 535 c4 -35 0 -56 -8 -51 -4 2 -8 -29 -8 -70 0 -58 3 -74 14 -74 14 0 14 19 -2 65 -4 11 1 5 12 -14 l19 -34 7 27 c4 15 1 42 -5 60 -7 20 -9 41 -4 52 7 15 9 12 15 -19 9 -50 21 -60 13 -11 -6 42 -56 108 -53 69z"/> <path d="M826 473 c3 -59 22 -152 34 -166 4 -4 3 16 -1 45 -5 29 -12 79 -17 110 -12 77 -20 82 -16 11z"/> <path d="M24 445 c-6 -45 -2 -78 18 -127 11 -29 38 -38 38 -13 0 9 -6 12 -17 8 -10 -3 -15 -3 -11 1 3 4 0 19 -7 33 -8 16 -11 45 -8 84 7 69 -3 79 -13 14z"/> <path d="M946 444 c-9 -8 -16 -30 -16 -48 0 -17 -4 -36 -10 -42 -6 -6 -3 -14 9 -21 17 -11 19 -8 24 30 6 56 10 71 21 78 4 4 4 9 -2 13 -6 3 -18 -1 -26 -10z"/> <path d="M239 448 c-15 -50 -13 -119 5 -153 10 -19 15 -22 19 -11 3 8 -1 17 -8 20 -11 4 -14 23 -12 76 3 57 1 83 -4 68z"/> <path d="M1005 376 c0 -43 3 -52 16 -49 13 4 14 11 4 48 -15 61 -20 62 -20 1z"/> <path d="M725 380 c7 -61 17 -100 24 -95 10 5 7 33 -6 65 -6 14 -13 34 -16 45 -3 11 -4 4 -2 -15z"/> <path d="M793 383 c-1 -10 -4 -31 -8 -48 -5 -29 -5 -29 5 -5 6 13 15 27 20 30 6 4 5 13 -3 24 -12 16 -13 16 -14 -1z"/> <path d="M445 360 c10 -36 22 -45 38 -32 8 7 16 9 20 6 3 -3 3 4 0 16 -5 20 -7 20 -15 6 -9 -16 -12 -15 -30 6 l-20 23 7 -25z"/> <path d="M1323 373 c-7 -3 -13 -14 -13 -24 0 -11 3 -18 8 -16 4 3 7 -5 8 -16 0 -12 4 -46 9 -74 6 -40 4 -53 -5 -53 -7 0 -10 7 -6 15 3 8 1 15 -3 15 -8 0 -21 -99 -15 -108 1 -2 11 10 23 26 15 21 21 47 23 88 2 77 -13 152 -29 147z"/> <path d="M1397 343 c-4 -20 -4 -39 -2 -42 3 -2 5 3 5 12 0 10 5 17 11 17 6 0 8 -7 4 -17 -4 -13 -3 -15 5 -7 11 11 3 74 -10 74 -4 0 -10 -17 -13 -37z"/> <path d="M615 354 c-9 -9 -13 -19 -10 -22 3 -4 10 0 15 8 9 13 10 13 10 0 0 -8 -9 -30 -20 -48 -11 -18 -20 -38 -20 -45 1 -6 8 -1 16 13 8 14 13 18 11 9 -3 -9 -1 -22 4 -30 7 -11 9 -11 9 3 0 9 3 24 7 34 4 12 3 15 -5 10 -7 -4 -12 -2 -12 3 0 6 4 11 9 11 5 0 11 16 13 35 4 39 -2 43 -27 19z"/> <path d="M1209 354 c-16 -20 -19 -33 -25 -109 -5 -63 -21 -108 -35 -99 -5 3 -6 -3 -2 -12 4 -12 3 -15 -5 -10 -7 4 -12 2 -12 -3 0 -22 17 -10 47 31 31 44 40 92 20 116 -7 9 -7 16 1 24 9 9 12 7 12 -7 1 -16 2 -17 9 -5 8 12 12 90 5 90 -1 0 -8 -7 -15 -16z"/> <path d="M1245 286 c2 -28 -6 -58 -25 -98 -19 -38 -24 -59 -16 -62 6 -2 3 -5 -6 -5 -9 -1 -20 -6 -24 -12 -4 -7 -1 -10 7 -7 10 3 18 -8 25 -36 l11 -41 0 55 c0 93 2 107 12 91 5 -8 7 -20 4 -28 -3 -7 0 -13 6 -13 6 0 11 5 11 10 0 6 5 10 10 10 6 0 10 -4 10 -10 0 -15 -37 -49 -46 -42 -4 4 -4 -2 1 -13 4 -11 7 -31 7 -45 -1 -19 4 -14 18 20 10 25 19 41 20 35 1 -5 5 -1 9 9 12 30 1 67 -18 64 -20 -4 -27 34 -11 59 10 15 11 14 7 -10 -4 -28 7 -45 18 -27 11 19 -6 137 -20 137 -9 0 -12 -13 -10 -41z"/> <path d="M106 288 c-5 -21 -5 -46 0 -55 6 -15 8 -13 12 10 2 15 2 39 0 55 -4 25 -5 24 -12 -10z"/> <path d="M16 268 c-8 -41 7 -56 22 -23 9 20 9 24 1 19 -9 -5 -10 0 -7 14 4 12 3 22 -2 22 -4 0 -10 -14 -14 -32z"/> <path d="M860 282 c0 -6 5 -14 10 -17 6 -4 8 -15 5 -26 -4 -11 -2 -19 4 -19 16 0 13 46 -4 60 -9 8 -15 9 -15 2z"/> <path d="M1135 266 c-5 -11 -3 -21 4 -26 10 -5 10 -17 2 -44 -7 -27 -7 -36 1 -34 6 2 12 11 13 19 7 45 7 56 -2 79 -10 23 -12 23 -18 6z"/> <path d="M1056 222 c-4 -27 -2 -48 3 -50 6 -2 7 -12 1 -28 -5 -13 -6 -24 -2 -24 4 0 13 14 19 30 6 17 8 28 3 25 -4 -3 -6 15 -5 40 4 61 -11 66 -19 7z"/> <path d="M228 249 c-3 -9 -3 -21 2 -28 4 -7 5 -32 3 -55 -4 -33 -2 -44 10 -49 12 -5 14 -1 7 22 -4 16 -3 35 2 46 7 11 7 19 0 24 -5 3 -12 17 -14 31 -2 19 -5 21 -10 9z"/> <path d="M1693 224 c-3 -8 0 -21 6 -27 9 -9 11 -7 6 8 -6 18 -5 18 5 2 12 -19 4 -41 -12 -31 -6 4 -8 -3 -6 -17 5 -37 21 -25 34 25 7 25 8 43 3 40 -5 -3 -9 0 -9 5 0 17 -20 13 -27 -5z"/> <path d="M1603 194 c-3 -8 -1 -25 5 -37 l11 -22 0 22 c1 12 4 28 7 37 3 9 1 16 -5 16 -7 0 -14 -7 -18 -16z"/> <path d="M1741 173 c-11 -38 -6 -61 5 -27 3 10 10 29 15 42 5 13 5 22 -1 22 -5 0 -14 -17 -19 -37z"/> <path d="M1792 164 c-6 -11 -14 -18 -19 -16 -4 2 -9 -1 -11 -7 -2 -6 3 -8 12 -5 10 4 16 1 16 -7 0 -10 2 -11 8 -2 5 7 40 13 95 14 48 2 92 6 98 10 18 11 -73 20 -106 11 -36 -11 -65 -7 -75 9 -5 8 -11 6 -18 -7z"/> <path d="M1558 140 c6 -8 12 -24 12 -37 0 -13 5 -23 11 -23 8 0 10 -13 5 -38 -5 -33 -3 -38 14 -39 22 -2 29 30 10 42 -6 4 -8 16 -4 27 4 15 3 18 -7 13 -9 -6 -11 -4 -6 7 3 10 -5 25 -21 39 -15 13 -21 17 -14 9z"/> <path d="M880 102 c0 -5 5 -13 12 -20 9 -9 9 -12 -2 -13 -8 -1 -19 -1 -23 0 -5 1 -6 -3 -2 -9 3 -6 11 -8 16 -5 5 4 9 -1 9 -9 0 -8 4 -17 9 -21 6 -3 10 12 9 34 0 24 -6 42 -14 45 -8 3 -14 2 -14 -2z"/> </g> </svg> 